mtllib Barley_Bottle.mtl
o Barley_Bottle
v 0.22000 -0.39000 0.00000
v 0.22000 0.39000 0.00000
v 0.19053 -0.39000 0.11000
v 0.19053 0.39000 0.11000
v 0.11000 -0.39000 0.19053
v 0.11000 0.39000 0.19053
v 0.00000 -0.39000 0.22000
v 0.00000 0.39000 0.22000
v -0.11000 -0.39000 0.19053
v -0.11000 0.39000 0.19053
v -0.19053 -0.39000 0.11000
v -0.19053 0.39000 0.11000
v -0.22000 -0.39000 0.00000
v -0.22000 0.39000 0.00000
v -0.19053 -0.39000 -0.11000
v -0.19053 0.39000 -0.11000
v -0.11000 -0.39000 -0.19053
v -0.11000 0.39000 -0.19053
v -0.00000 -0.39000 -0.22000
v -0.00000 0.39000 -0.22000
v 0.11000 -0.39000 -0.19053
v 0.11000 0.39000 -0.19053
v 0.19053 -0.39000 -0.11000
v 0.19053 0.39000 -0.11000
v 0.17000 0.34000 0.00000
v 0.17000 0.52000 0.00000
v 0.14722 0.34000 0.08500
v 0.14722 0.52000 0.08500
v 0.08500 0.34000 0.14722
v 0.08500 0.52000 0.14722
v 0.00000 0.34000 0.17000
v 0.00000 0.52000 0.17000
v -0.08500 0.34000 0.14722
v -0.08500 0.52000 0.14722
v -0.14722 0.34000 0.08500
v -0.14722 0.52000 0.08500
v -0.17000 0.34000 0.00000
v -0.17000 0.52000 0.00000
v -0.14722 0.34000 -0.08500
v -0.14722 0.52000 -0.08500
v -0.08500 0.34000 -0.14722
v -0.08500 0.52000 -0.14722
v -0.00000 0.34000 -0.17000
v -0.00000 0.52000 -0.17000
v 0.08500 0.34000 -0.14722
v 0.08500 0.52000 -0.14722
v 0.14722 0.34000 -0.08500
v 0.14722 0.52000 -0.08500
v 0.09500 0.45000 0.00000
v 0.09500 0.79000 0.00000
v 0.07686 0.45000 0.05584
v 0.07686 0.79000 0.05584
v 0.02936 0.45000 0.09035
v 0.02936 0.79000 0.09035
v -0.02936 0.45000 0.09035
v -0.02936 0.79000 0.09035
v -0.07686 0.45000 0.05584
v -0.07686 0.79000 0.05584
v -0.09500 0.45000 0.00000
v -0.09500 0.79000 0.00000
v -0.07686 0.45000 -0.05584
v -0.07686 0.79000 -0.05584
v -0.02936 0.45000 -0.09035
v -0.02936 0.79000 -0.09035
v 0.02936 0.45000 -0.09035
v 0.02936 0.79000 -0.09035
v 0.07686 0.45000 -0.05584
v 0.07686 0.79000 -0.05584
v 0.10500 0.77000 0.00000
v 0.10500 0.87000 0.00000
v 0.08495 0.77000 0.06172
v 0.08495 0.87000 0.06172
v 0.03245 0.77000 0.09986
v 0.03245 0.87000 0.09986
v -0.03245 0.77000 0.09986
v -0.03245 0.87000 0.09986
v -0.08495 0.77000 0.06172
v -0.08495 0.87000 0.06172
v -0.10500 0.77000 0.00000
v -0.10500 0.87000 0.00000
v -0.08495 0.77000 -0.06172
v -0.08495 0.87000 -0.06172
v -0.03245 0.77000 -0.09986
v -0.03245 0.87000 -0.09986
v 0.03245 0.77000 -0.09986
v 0.03245 0.87000 -0.09986
v 0.08495 0.77000 -0.06172
v 0.08495 0.87000 -0.06172
v -0.19000 -0.11000 -0.23300
v 0.19000 -0.11000 -0.23300
v 0.19000 0.15000 -0.23300
v -0.19000 0.15000 -0.23300
v -0.19000 -0.11000 -0.21500
v 0.19000 -0.11000 -0.21500
v 0.19000 0.15000 -0.21500
v -0.19000 0.15000 -0.21500
v -0.09000 0.58000 -0.10600
v 0.09000 0.58000 -0.10600
v 0.09000 0.68000 -0.10600
v -0.09000 0.68000 -0.10600
v -0.09000 0.58000 -0.09000
v 0.09000 0.58000 -0.09000
v 0.09000 0.68000 -0.09000
v -0.09000 0.68000 -0.09000
v -0.17078 0.02633 -0.24600
v 0.16591 -0.02099 -0.24600
v 0.17078 0.01367 -0.24600
v -0.16591 0.06099 -0.24600
v -0.17078 0.02633 -0.22600
v 0.16591 -0.02099 -0.22600
v 0.17078 0.01367 -0.22600
v -0.16591 0.06099 -0.22600
v 0.23200 -0.18900 0.00000
v 0.23200 -0.17100 0.00000
v 0.20092 -0.18900 0.11600
v 0.20092 -0.17100 0.11600
v 0.11600 -0.18900 0.20092
v 0.11600 -0.17100 0.20092
v 0.00000 -0.18900 0.23200
v 0.00000 -0.17100 0.23200
v -0.11600 -0.18900 0.20092
v -0.11600 -0.17100 0.20092
v -0.20092 -0.18900 0.11600
v -0.20092 -0.17100 0.11600
v -0.23200 -0.18900 0.00000
v -0.23200 -0.17100 0.00000
v -0.20092 -0.18900 -0.11600
v -0.20092 -0.17100 -0.11600
v -0.11600 -0.18900 -0.20092
v -0.11600 -0.17100 -0.20092
v -0.00000 -0.18900 -0.23200
v -0.00000 -0.17100 -0.23200
v 0.11600 -0.18900 -0.20092
v 0.11600 -0.17100 -0.20092
v 0.20092 -0.18900 -0.11600
v 0.20092 -0.17100 -0.11600
v 0.23200 0.19100 0.00000
v 0.23200 0.20900 0.00000
v 0.20092 0.19100 0.11600
v 0.20092 0.20900 0.11600
v 0.11600 0.19100 0.20092
v 0.11600 0.20900 0.20092
v 0.00000 0.19100 0.23200
v 0.00000 0.20900 0.23200
v -0.11600 0.19100 0.20092
v -0.11600 0.20900 0.20092
v -0.20092 0.19100 0.11600
v -0.20092 0.20900 0.11600
v -0.23200 0.19100 0.00000
v -0.23200 0.20900 0.00000
v -0.20092 0.19100 -0.11600
v -0.20092 0.20900 -0.11600
v -0.11600 0.19100 -0.20092
v -0.11600 0.20900 -0.20092
v -0.00000 0.19100 -0.23200
v -0.00000 0.20900 -0.23200
v 0.11600 0.19100 -0.20092
v 0.11600 0.20900 -0.20092
v 0.20092 0.19100 -0.11600
v 0.20092 0.20900 -0.11600
v 0.23200 0.46100 0.00000
v 0.23200 0.47900 0.00000
v 0.20092 0.46100 0.11600
v 0.20092 0.47900 0.11600
v 0.11600 0.46100 0.20092
v 0.11600 0.47900 0.20092
v 0.00000 0.46100 0.23200
v 0.00000 0.47900 0.23200
v -0.11600 0.46100 0.20092
v -0.11600 0.47900 0.20092
v -0.20092 0.46100 0.11600
v -0.20092 0.47900 0.11600
v -0.23200 0.46100 0.00000
v -0.23200 0.47900 0.00000
v -0.20092 0.46100 -0.11600
v -0.20092 0.47900 -0.11600
v -0.11600 0.46100 -0.20092
v -0.11600 0.47900 -0.20092
v -0.00000 0.46100 -0.23200
v -0.00000 0.47900 -0.23200
v 0.11600 0.46100 -0.20092
v 0.11600 0.47900 -0.20092
v 0.20092 0.46100 -0.11600
v 0.20092 0.47900 -0.11600
v -0.26250 -0.30000 -0.01750
v -0.22750 -0.30000 -0.01750
v -0.22750 0.26000 -0.01750
v -0.26250 0.26000 -0.01750
v -0.26250 -0.30000 0.01750
v -0.22750 -0.30000 0.01750
v -0.22750 0.26000 0.01750
v -0.26250 0.26000 0.01750
v 0.22750 -0.30000 -0.01750
v 0.26250 -0.30000 -0.01750
v 0.26250 0.26000 -0.01750
v 0.22750 0.26000 -0.01750
v 0.22750 -0.30000 0.01750
v 0.26250 -0.30000 0.01750
v 0.26250 0.26000 0.01750
v 0.22750 0.26000 0.01750
v 0.10439 0.76989 -0.01500
v 0.15138 0.78699 -0.01500
v 0.05561 1.05011 -0.01500
v 0.00862 1.03301 -0.01500
v 0.10439 0.76989 0.01500
v 0.15138 0.78699 0.01500
v 0.05561 1.05011 0.01500
v 0.00862 1.03301 0.01500
v 0.08914 0.72360 -0.01500
v 0.13669 0.70815 -0.01500
v 0.21086 0.93640 -0.01500
v 0.16331 0.95185 -0.01500
v 0.08914 0.72360 0.01500
v 0.13669 0.70815 0.01500
v 0.21086 0.93640 0.01500
v 0.16331 0.95185 0.01500
v 0.08000 0.45250 -0.11800
v 0.16000 0.45250 -0.11800
v 0.16000 0.50750 -0.11800
v 0.08000 0.50750 -0.11800
v 0.08000 0.45250 -0.09200
v 0.16000 0.45250 -0.09200
v 0.16000 0.50750 -0.09200
v 0.08000 0.50750 -0.09200
g BottleBody
usemtl bottle_green
f 23 21 19 17 15 13 11 9 7 5 3 1
f 2 4 6 8 10 12 14 16 18 20 22 24
f 1 3 4 2
f 3 5 6 4
f 5 7 8 6
f 7 9 10 8
f 9 11 12 10
f 11 13 14 12
f 13 15 16 14
f 15 17 18 16
f 17 19 20 18
f 19 21 22 20
f 21 23 24 22
f 23 1 2 24
g BottleShoulder
usemtl glass_highlight
f 47 45 43 41 39 37 35 33 31 29 27 25
f 26 28 30 32 34 36 38 40 42 44 46 48
f 25 27 28 26
f 27 29 30 28
f 29 31 32 30
f 31 33 34 32
f 33 35 36 34
f 35 37 38 36
f 37 39 40 38
f 39 41 42 40
f 41 43 44 42
f 43 45 46 44
f 45 47 48 46
f 47 25 26 48
g BottleNeck
usemtl bottle_green
f 67 65 63 61 59 57 55 53 51 49
f 50 52 54 56 58 60 62 64 66 68
f 49 51 52 50
f 51 53 54 52
f 53 55 56 54
f 55 57 58 56
f 57 59 60 58
f 59 61 62 60
f 61 63 64 62
f 63 65 66 64
f 65 67 68 66
f 67 49 50 68
g Cap
usemtl cap_black
f 87 85 83 81 79 77 75 73 71 69
f 70 72 74 76 78 80 82 84 86 88
f 69 71 72 70
f 71 73 74 72
f 73 75 76 74
f 75 77 78 76
f 77 79 80 78
f 79 81 82 80
f 81 83 84 82
f 83 85 86 84
f 85 87 88 86
f 87 69 70 88
g MainLabel
usemtl label_aged
f 89 90 91 92
f 93 96 95 94
f 89 93 94 90
f 90 94 95 91
f 91 95 96 92
f 92 96 93 89
g NeckLabel
usemtl label_aged
f 97 98 99 100
f 101 104 103 102
f 97 101 102 98
f 98 102 103 99
f 99 103 104 100
f 100 104 101 97
g LabelSlash
usemtl label_red
f 105 106 107 108
f 109 112 111 110
f 105 109 110 106
f 106 110 111 107
f 107 111 112 108
f 108 112 109 105
g WireBand
usemtl wire
f 135 133 131 129 127 125 123 121 119 117 115 113
f 114 116 118 120 122 124 126 128 130 132 134 136
f 113 115 116 114
f 115 117 118 116
f 117 119 120 118
f 119 121 122 120
f 121 123 124 122
f 123 125 126 124
f 125 127 128 126
f 127 129 130 128
f 129 131 132 130
f 131 133 134 132
f 133 135 136 134
f 135 113 114 136
g WireBand
usemtl wire
f 159 157 155 153 151 149 147 145 143 141 139 137
f 138 140 142 144 146 148 150 152 154 156 158 160
f 137 139 140 138
f 139 141 142 140
f 141 143 144 142
f 143 145 146 144
f 145 147 148 146
f 147 149 150 148
f 149 151 152 150
f 151 153 154 152
f 153 155 156 154
f 155 157 158 156
f 157 159 160 158
f 159 137 138 160
g WireBand
usemtl wire
f 183 181 179 177 175 173 171 169 167 165 163 161
f 162 164 166 168 170 172 174 176 178 180 182 184
f 161 163 164 162
f 163 165 166 164
f 165 167 168 166
f 167 169 170 168
f 169 171 172 170
f 171 173 174 172
f 173 175 176 174
f 175 177 178 176
f 177 179 180 178
f 179 181 182 180
f 181 183 184 182
f 183 161 162 184
g SideStickLeft
usemtl wood
f 185 186 187 188
f 189 192 191 190
f 185 189 190 186
f 186 190 191 187
f 187 191 192 188
f 188 192 189 185
g SideStickRight
usemtl wood
f 193 194 195 196
f 197 200 199 198
f 193 197 198 194
f 194 198 199 195
f 195 199 200 196
f 196 200 197 193
g RagFoldA
usemtl rag
f 201 202 203 204
f 205 208 207 206
f 201 205 206 202
f 202 206 207 203
f 203 207 208 204
f 204 208 205 201
g RagFoldB
usemtl rag
f 209 210 211 212
f 213 216 215 214
f 209 213 214 210
f 210 214 215 211
f 211 215 216 212
f 212 216 213 209
g WaxSeal
usemtl wax
f 217 218 219 220
f 221 224 223 222
f 217 221 222 218
f 218 222 223 219
f 219 223 224 220
f 220 224 221 217
