mtllib Bo_Bow.mtl
o Bo_Bow
v -0.13677 0.30117 -0.04000
v -0.06160 0.27381 -0.04000
v 0.13677 0.81883 -0.04000
v 0.06160 0.84619 -0.04000
v -0.13677 0.30117 0.04000
v -0.06160 0.27381 0.04000
v 0.13677 0.81883 0.04000
v 0.06160 0.84619 0.04000
v -0.06989 0.04845 -0.03750
v 0.00419 0.03672 -0.03750
v 0.06989 0.45155 -0.03750
v -0.00419 0.46328 -0.03750
v -0.06989 0.04845 0.03750
v 0.00419 0.03672 0.03750
v 0.06989 0.45155 0.03750
v -0.00419 0.46328 0.03750
v -0.00419 -0.46328 -0.03750
v 0.06989 -0.45155 -0.03750
v 0.00419 -0.03672 -0.03750
v -0.06989 -0.04845 -0.03750
v -0.00419 -0.46328 0.03750
v 0.06989 -0.45155 0.03750
v 0.00419 -0.03672 0.03750
v -0.06989 -0.04845 0.03750
v 0.06160 -0.84619 -0.04000
v 0.13677 -0.81883 -0.04000
v -0.06160 -0.27381 -0.04000
v -0.13677 -0.30117 -0.04000
v 0.06160 -0.84619 0.04000
v 0.13677 -0.81883 0.04000
v -0.06160 -0.27381 0.04000
v -0.13677 -0.30117 0.04000
v -0.05500 -0.12000 -0.05000
v 0.05500 -0.12000 -0.05000
v 0.05500 0.12000 -0.05000
v -0.05500 0.12000 -0.05000
v -0.05500 -0.12000 0.05000
v 0.05500 -0.12000 0.05000
v 0.05500 0.12000 0.05000
v -0.05500 0.12000 0.05000
v -0.13495 0.35851 -0.04500
v -0.05977 0.33114 -0.04500
v -0.00505 0.48149 -0.04500
v -0.08023 0.50886 -0.04500
v -0.13495 0.35851 0.04500
v -0.05977 0.33114 0.04500
v -0.00505 0.48149 0.04500
v -0.08023 0.50886 0.04500
v -0.08023 -0.50886 -0.04500
v -0.00505 -0.48149 -0.04500
v -0.05977 -0.33114 -0.04500
v -0.13495 -0.35851 -0.04500
v -0.08023 -0.50886 0.04500
v -0.00505 -0.48149 0.04500
v -0.05977 -0.33114 0.04500
v -0.13495 -0.35851 0.04500
v 0.26900 -0.62000 -0.01100
v 0.29100 -0.62000 -0.01100
v 0.29100 0.62000 -0.01100
v 0.26900 0.62000 -0.01100
v 0.26900 -0.62000 0.01100
v 0.29100 -0.62000 0.01100
v 0.29100 0.62000 0.01100
v 0.26900 0.62000 0.01100
v 0.02000 0.01800 -0.59500
v 0.02000 0.01800 0.55500
v 0.00727 0.01273 -0.59500
v 0.00727 0.01273 0.55500
v 0.00200 0.00000 -0.59500
v 0.00200 0.00000 0.55500
v 0.00727 -0.01273 -0.59500
v 0.00727 -0.01273 0.55500
v 0.02000 -0.01800 -0.59500
v 0.02000 -0.01800 0.55500
v 0.03273 -0.01273 -0.59500
v 0.03273 -0.01273 0.55500
v 0.03800 -0.00000 -0.59500
v 0.03800 -0.00000 0.55500
v 0.03273 0.01273 -0.59500
v 0.03273 0.01273 0.55500
v 0.02000 0.66000 -0.02000
v 0.07000 0.58000 -0.02000
v 0.02000 0.58000 0.03000
v -0.03000 0.58000 -0.02000
v 0.02000 0.58000 -0.07000
v 0.02000 0.50000 -0.02000
v -0.02593 -0.57348 -0.07750
v 0.08283 -0.52277 -0.07750
v 0.06593 -0.48652 -0.07750
v -0.04283 -0.53723 -0.07750
v -0.02593 -0.57348 -0.04250
v 0.08283 -0.52277 -0.04250
v 0.06593 -0.48652 -0.04250
v -0.04283 -0.53723 -0.04250
v -0.04283 -0.52277 0.02250
v 0.06593 -0.57348 0.02250
v 0.08283 -0.53723 0.02250
v -0.02593 -0.48652 0.02250
v -0.04283 -0.52277 0.05750
v 0.06593 -0.57348 0.05750
v 0.08283 -0.53723 0.05750
v -0.02593 -0.48652 0.05750
g UpperOuterLimb
usemtl wood
f 1 2 3 4
f 5 8 7 6
f 1 5 6 2
f 2 6 7 3
f 3 7 8 4
f 4 8 5 1
g UpperInnerLimb
usemtl wood
f 9 10 11 12
f 13 16 15 14
f 9 13 14 10
f 10 14 15 11
f 11 15 16 12
f 12 16 13 9
g LowerInnerLimb
usemtl wood
f 17 18 19 20
f 21 24 23 22
f 17 21 22 18
f 18 22 23 19
f 19 23 24 20
f 20 24 21 17
g LowerOuterLimb
usemtl wood
f 25 26 27 28
f 29 32 31 30
f 25 29 30 26
f 26 30 31 27
f 27 31 32 28
f 28 32 29 25
g GripWrap
usemtl wrap_green
f 33 34 35 36
f 37 40 39 38
f 33 37 38 34
f 34 38 39 35
f 35 39 40 36
f 36 40 37 33
g UpperGreenWrap
usemtl wrap_green
f 41 42 43 44
f 45 48 47 46
f 41 45 46 42
f 42 46 47 43
f 43 47 48 44
f 44 48 45 41
g LowerGreenWrap
usemtl wrap_green
f 49 50 51 52
f 53 56 55 54
f 49 53 54 50
f 50 54 55 51
f 51 55 56 52
f 52 56 53 49
g BowString
usemtl string
f 57 58 59 60
f 61 64 63 62
f 57 61 62 58
f 58 62 63 59
f 59 63 64 60
f 60 64 61 57
g ArrowShaft
usemtl arrow_wood
f 79 77 75 73 71 69 67 65
f 66 68 70 72 74 76 78 80
f 65 67 68 66
f 67 69 70 68
f 69 71 72 70
f 71 73 74 72
f 73 75 76 74
f 75 77 78 76
f 77 79 80 78
f 79 65 66 80
g ArrowHead
usemtl arrow_tip
f 81 82 83
f 81 83 84
f 81 84 85
f 81 85 82
f 86 83 82
f 86 84 83
f 86 85 84
f 86 82 85
g FeatherA
usemtl feather
f 87 88 89 90
f 91 94 93 92
f 87 91 92 88
f 88 92 93 89
f 89 93 94 90
f 90 94 91 87
g FeatherB
usemtl feather
f 95 96 97 98
f 99 102 101 100
f 95 99 100 96
f 96 100 101 97
f 97 101 102 98
f 98 102 99 95
