mtllib Byron_Staff.mtl
o Byron_Staff
v 0.05500 -0.87500 0.00000
v 0.05500 0.87500 0.00000
v 0.04450 -0.87500 0.03233
v 0.04450 0.87500 0.03233
v 0.01700 -0.87500 0.05231
v 0.01700 0.87500 0.05231
v -0.01700 -0.87500 0.05231
v -0.01700 0.87500 0.05231
v -0.04450 -0.87500 0.03233
v -0.04450 0.87500 0.03233
v -0.05500 -0.87500 0.00000
v -0.05500 0.87500 0.00000
v -0.04450 -0.87500 -0.03233
v -0.04450 0.87500 -0.03233
v -0.01700 -0.87500 -0.05231
v -0.01700 0.87500 -0.05231
v 0.01700 -0.87500 -0.05231
v 0.01700 0.87500 -0.05231
v 0.04450 -0.87500 -0.03233
v 0.04450 0.87500 -0.03233
v 0.07000 -0.70750 0.00000
v 0.07000 -0.65250 0.00000
v 0.05663 -0.70750 0.04114
v 0.05663 -0.65250 0.04114
v 0.02163 -0.70750 0.06657
v 0.02163 -0.65250 0.06657
v -0.02163 -0.70750 0.06657
v -0.02163 -0.65250 0.06657
v -0.05663 -0.70750 0.04114
v -0.05663 -0.65250 0.04114
v -0.07000 -0.70750 0.00000
v -0.07000 -0.65250 0.00000
v -0.05663 -0.70750 -0.04114
v -0.05663 -0.65250 -0.04114
v -0.02163 -0.70750 -0.06657
v -0.02163 -0.65250 -0.06657
v 0.02163 -0.70750 -0.06657
v 0.02163 -0.65250 -0.06657
v 0.05663 -0.70750 -0.04114
v 0.05663 -0.65250 -0.04114
v 0.07000 -0.30750 0.00000
v 0.07000 -0.25250 0.00000
v 0.05663 -0.30750 0.04114
v 0.05663 -0.25250 0.04114
v 0.02163 -0.30750 0.06657
v 0.02163 -0.25250 0.06657
v -0.02163 -0.30750 0.06657
v -0.02163 -0.25250 0.06657
v -0.05663 -0.30750 0.04114
v -0.05663 -0.25250 0.04114
v -0.07000 -0.30750 0.00000
v -0.07000 -0.25250 0.00000
v -0.05663 -0.30750 -0.04114
v -0.05663 -0.25250 -0.04114
v -0.02163 -0.30750 -0.06657
v -0.02163 -0.25250 -0.06657
v 0.02163 -0.30750 -0.06657
v 0.02163 -0.25250 -0.06657
v 0.05663 -0.30750 -0.04114
v 0.05663 -0.25250 -0.04114
v 0.07000 0.19250 0.00000
v 0.07000 0.24750 0.00000
v 0.05663 0.19250 0.04114
v 0.05663 0.24750 0.04114
v 0.02163 0.19250 0.06657
v 0.02163 0.24750 0.06657
v -0.02163 0.19250 0.06657
v -0.02163 0.24750 0.06657
v -0.05663 0.19250 0.04114
v -0.05663 0.24750 0.04114
v -0.07000 0.19250 0.00000
v -0.07000 0.24750 0.00000
v -0.05663 0.19250 -0.04114
v -0.05663 0.24750 -0.04114
v -0.02163 0.19250 -0.06657
v -0.02163 0.24750 -0.06657
v 0.02163 0.19250 -0.06657
v 0.02163 0.24750 -0.06657
v 0.05663 0.19250 -0.04114
v 0.05663 0.24750 -0.04114
v 0.07000 0.55250 0.00000
v 0.07000 0.60750 0.00000
v 0.05663 0.55250 0.04114
v 0.05663 0.60750 0.04114
v 0.02163 0.55250 0.06657
v 0.02163 0.60750 0.06657
v -0.02163 0.55250 0.06657
v -0.02163 0.60750 0.06657
v -0.05663 0.55250 0.04114
v -0.05663 0.60750 0.04114
v -0.07000 0.55250 0.00000
v -0.07000 0.60750 0.00000
v -0.05663 0.55250 -0.04114
v -0.05663 0.60750 -0.04114
v -0.02163 0.55250 -0.06657
v -0.02163 0.60750 -0.06657
v 0.02163 0.55250 -0.06657
v 0.02163 0.60750 -0.06657
v 0.05663 0.55250 -0.04114
v 0.05663 0.60750 -0.04114
v 0.08500 -0.99500 0.00000
v 0.08500 -0.88500 0.00000
v 0.06877 -0.99500 0.04996
v 0.06877 -0.88500 0.04996
v 0.02627 -0.99500 0.08084
v 0.02627 -0.88500 0.08084
v -0.02627 -0.99500 0.08084
v -0.02627 -0.88500 0.08084
v -0.06877 -0.99500 0.04996
v -0.06877 -0.88500 0.04996
v -0.08500 -0.99500 0.00000
v -0.08500 -0.88500 0.00000
v -0.06877 -0.99500 -0.04996
v -0.06877 -0.88500 -0.04996
v -0.02627 -0.99500 -0.08084
v -0.02627 -0.88500 -0.08084
v 0.02627 -0.99500 -0.08084
v 0.02627 -0.88500 -0.08084
v 0.06877 -0.99500 -0.04996
v 0.06877 -0.88500 -0.04996
v -0.00349 0.03424 -0.06400
v 0.03730 0.05326 -0.06400
v 0.00349 0.12576 -0.06400
v -0.03730 0.10674 -0.06400
v -0.00349 0.03424 -0.05200
v 0.03730 0.05326 -0.05200
v 0.00349 0.12576 -0.05200
v -0.03730 0.10674 -0.05200
v -0.03292 0.27673 -0.06400
v 0.00333 0.25983 -0.06400
v 0.03292 0.32327 -0.06400
v -0.00333 0.34017 -0.06400
v -0.03292 0.27673 -0.05200
v 0.00333 0.25983 -0.05200
v 0.03292 0.32327 -0.05200
v -0.00333 0.34017 -0.05200
v -0.02250 0.42500 -0.06400
v 0.02250 0.42500 -0.06400
v 0.02250 0.51500 -0.06400
v -0.02250 0.51500 -0.06400
v -0.02250 0.42500 -0.05200
v 0.02250 0.42500 -0.05200
v 0.02250 0.51500 -0.05200
v -0.02250 0.51500 -0.05200
v -0.00189 0.75706 -0.02750
v 0.08640 0.80401 -0.02750
v 0.00189 0.96294 -0.02750
v -0.08640 0.91599 -0.02750
v -0.00189 0.75706 0.02750
v 0.08640 0.80401 0.02750
v 0.00189 0.96294 0.02750
v -0.08640 0.91599 0.02750
v 0.01797 0.76762 0.05000
v 0.01797 0.76762 -0.05000
v -0.06653 0.92655 -0.05000
v -0.06653 0.92655 0.05000
v 0.06653 0.79345 0.05000
v 0.06653 0.79345 -0.05000
v -0.01797 0.95238 -0.05000
v -0.01797 0.95238 0.05000
v 0.08640 0.80401 0.02750
v -0.00189 0.75706 0.02750
v -0.08640 0.91599 0.02750
v 0.00189 0.96294 0.02750
v 0.08640 0.80401 -0.02750
v -0.00189 0.75706 -0.02750
v -0.08640 0.91599 -0.02750
v 0.00189 0.96294 -0.02750
v 0.06653 0.79345 -0.05000
v 0.06653 0.79345 0.05000
v -0.01797 0.95238 0.05000
v -0.01797 0.95238 -0.05000
v 0.01797 0.76762 -0.05000
v 0.01797 0.76762 0.05000
v -0.06653 0.92655 0.05000
v -0.06653 0.92655 -0.05000
v 0.00000 1.23000 0.00000
v 0.14000 1.02000 0.00000
v 0.00000 1.02000 0.14000
v -0.14000 1.02000 0.00000
v 0.00000 1.02000 -0.14000
v 0.00000 0.81000 0.00000
v 0.12000 0.75000 0.00000
v 0.12000 0.81000 0.00000
v 0.09708 0.75000 0.07053
v 0.09708 0.81000 0.07053
v 0.03708 0.75000 0.11413
v 0.03708 0.81000 0.11413
v -0.03708 0.75000 0.11413
v -0.03708 0.81000 0.11413
v -0.09708 0.75000 0.07053
v -0.09708 0.81000 0.07053
v -0.12000 0.75000 0.00000
v -0.12000 0.81000 0.00000
v -0.09708 0.75000 -0.07053
v -0.09708 0.81000 -0.07053
v -0.03708 0.75000 -0.11413
v -0.03708 0.81000 -0.11413
v 0.03708 0.75000 -0.11413
v 0.03708 0.81000 -0.11413
v 0.09708 0.75000 -0.07053
v 0.09708 0.81000 -0.07053
g Shaft
usemtl wood
f 19 17 15 13 11 9 7 5 3 1
f 2 4 6 8 10 12 14 16 18 20
f 1 3 4 2
f 3 5 6 4
f 5 7 8 6
f 7 9 10 8
f 9 11 12 10
f 11 13 14 12
f 13 15 16 14
f 15 17 18 16
f 17 19 20 18
f 19 1 2 20
g GoldBand
usemtl gold
f 39 37 35 33 31 29 27 25 23 21
f 22 24 26 28 30 32 34 36 38 40
f 21 23 24 22
f 23 25 26 24
f 25 27 28 26
f 27 29 30 28
f 29 31 32 30
f 31 33 34 32
f 33 35 36 34
f 35 37 38 36
f 37 39 40 38
f 39 21 22 40
g GoldBand
usemtl gold
f 59 57 55 53 51 49 47 45 43 41
f 42 44 46 48 50 52 54 56 58 60
f 41 43 44 42
f 43 45 46 44
f 45 47 48 46
f 47 49 50 48
f 49 51 52 50
f 51 53 54 52
f 53 55 56 54
f 55 57 58 56
f 57 59 60 58
f 59 41 42 60
g GoldBand
usemtl gold
f 79 77 75 73 71 69 67 65 63 61
f 62 64 66 68 70 72 74 76 78 80
f 61 63 64 62
f 63 65 66 64
f 65 67 68 66
f 67 69 70 68
f 69 71 72 70
f 71 73 74 72
f 73 75 76 74
f 75 77 78 76
f 77 79 80 78
f 79 61 62 80
g GoldBand
usemtl gold
f 99 97 95 93 91 89 87 85 83 81
f 82 84 86 88 90 92 94 96 98 100
f 81 83 84 82
f 83 85 86 84
f 85 87 88 86
f 87 89 90 88
f 89 91 92 90
f 91 93 94 92
f 93 95 96 94
f 95 97 98 96
f 97 99 100 98
f 99 81 82 100
g BottomPommel
usemtl steel
f 119 117 115 113 111 109 107 105 103 101
f 102 104 106 108 110 112 114 116 118 120
f 101 103 104 102
f 103 105 106 104
f 105 107 108 106
f 107 109 110 108
f 109 111 112 110
f 111 113 114 112
f 113 115 116 114
f 115 117 118 116
f 117 119 120 118
f 119 101 102 120
g RuneA
usemtl rune
f 121 122 123 124
f 125 128 127 126
f 121 125 126 122
f 122 126 127 123
f 123 127 128 124
f 124 128 125 121
g RuneB
usemtl rune
f 129 130 131 132
f 133 136 135 134
f 129 133 134 130
f 130 134 135 131
f 131 135 136 132
f 132 136 133 129
g RuneC
usemtl rune
f 137 138 139 140
f 141 144 143 142
f 137 141 142 138
f 138 142 143 139
f 139 143 144 140
f 140 144 141 137
g CrystalPetal
usemtl purple
f 145 146 147 148
f 149 152 151 150
f 145 149 150 146
f 146 150 151 147
f 147 151 152 148
f 148 152 149 145
g CrystalPetal
usemtl purple
f 153 154 155 156
f 157 160 159 158
f 153 157 158 154
f 154 158 159 155
f 155 159 160 156
f 156 160 157 153
g CrystalPetal
usemtl purple
f 161 162 163 164
f 165 168 167 166
f 161 165 166 162
f 162 166 167 163
f 163 167 168 164
f 164 168 165 161
g CrystalPetal
usemtl purple
f 169 170 171 172
f 173 176 175 174
f 169 173 174 170
f 170 174 175 171
f 171 175 176 172
f 172 176 173 169
g TipCrystal
usemtl crystal
f 177 178 179
f 177 179 180
f 177 180 181
f 177 181 178
f 182 179 178
f 182 180 179
f 182 181 180
f 182 178 181
g CrystalCollar
usemtl gold
f 201 199 197 195 193 191 189 187 185 183
f 184 186 188 190 192 194 196 198 200 202
f 183 185 186 184
f 185 187 188 186
f 187 189 190 188
f 189 191 192 190
f 191 193 194 192
f 193 195 196 194
f 195 197 198 196
f 197 199 200 198
f 199 201 202 200
f 201 183 184 202
