mtllib Colt_Pistol.mtl
o Colt_Pistol
v -0.12000 0.02000 -0.25000
v 0.12000 0.02000 -0.25000
v 0.12000 0.18000 -0.25000
v -0.12000 0.18000 -0.25000
v -0.12000 0.02000 0.49000
v 0.12000 0.02000 0.49000
v 0.12000 0.18000 0.49000
v -0.12000 0.18000 0.49000
v -0.10500 -0.08000 -0.20000
v 0.10500 -0.08000 -0.20000
v 0.10500 0.04000 -0.20000
v -0.10500 0.04000 -0.20000
v -0.10500 -0.08000 0.32000
v 0.10500 -0.08000 0.32000
v 0.10500 0.04000 0.32000
v -0.10500 0.04000 0.32000
v -0.09000 -0.41686 -0.16039
v 0.09000 -0.41686 -0.16039
v 0.09000 -0.06472 -0.23524
v -0.09000 -0.06472 -0.23524
v -0.09000 -0.37528 0.03524
v 0.09000 -0.37528 0.03524
v 0.09000 -0.02314 -0.03961
v -0.09000 -0.02314 -0.03961
v -0.10400 -0.38357 -0.14914
v -0.08600 -0.38357 -0.14914
v -0.08600 -0.10969 -0.20736
v -0.10400 -0.10969 -0.20736
v -0.10400 -0.35031 0.00736
v -0.08600 -0.35031 0.00736
v -0.08600 -0.07643 -0.05086
v -0.10400 -0.07643 -0.05086
v 0.08600 -0.38357 -0.14914
v 0.10400 -0.38357 -0.14914
v 0.10400 -0.10969 -0.20736
v 0.08600 -0.10969 -0.20736
v 0.08600 -0.35031 0.00736
v 0.10400 -0.35031 0.00736
v 0.10400 -0.07643 -0.05086
v 0.08600 -0.07643 -0.05086
v 0.05500 0.10000 0.44000
v 0.05500 0.10000 0.62000
v 0.04450 0.13233 0.44000
v 0.04450 0.13233 0.62000
v 0.01700 0.15231 0.44000
v 0.01700 0.15231 0.62000
v -0.01700 0.15231 0.44000
v -0.01700 0.15231 0.62000
v -0.04450 0.13233 0.44000
v -0.04450 0.13233 0.62000
v -0.05500 0.10000 0.44000
v -0.05500 0.10000 0.62000
v -0.04450 0.06767 0.44000
v -0.04450 0.06767 0.62000
v -0.01700 0.04769 0.44000
v -0.01700 0.04769 0.62000
v 0.01700 0.04769 0.44000
v 0.01700 0.04769 0.62000
v 0.04450 0.06767 0.44000
v 0.04450 0.06767 0.62000
v -0.08000 0.04500 0.41000
v 0.08000 0.04500 0.41000
v 0.08000 0.15500 0.41000
v -0.08000 0.15500 0.41000
v -0.08000 0.04500 0.49000
v 0.08000 0.04500 0.49000
v 0.08000 0.15500 0.49000
v -0.08000 0.15500 0.49000
v -0.09500 -0.15500 0.08000
v 0.09500 -0.15500 0.08000
v 0.09500 -0.05500 0.08000
v -0.09500 -0.05500 0.08000
v -0.09500 -0.15500 0.24000
v 0.09500 -0.15500 0.24000
v 0.09500 -0.05500 0.24000
v -0.09500 -0.05500 0.24000
v -0.02750 -0.16584 0.13470
v 0.02750 -0.16584 0.13470
v 0.02750 -0.08025 0.16251
v -0.02750 -0.08025 0.16251
v -0.02750 -0.17975 0.17749
v 0.02750 -0.17975 0.17749
v 0.02750 -0.09416 0.20530
v -0.02750 -0.09416 0.20530
v -0.07000 0.18750 -0.26000
v 0.07000 0.18750 -0.26000
v 0.07000 0.22250 -0.26000
v -0.07000 0.22250 -0.26000
v -0.07000 0.18750 -0.18000
v 0.07000 0.18750 -0.18000
v 0.07000 0.22250 -0.18000
v -0.07000 0.22250 -0.18000
v -0.05000 0.18750 0.39500
v 0.05000 0.18750 0.39500
v 0.05000 0.22250 0.39500
v -0.05000 0.22250 0.39500
v -0.05000 0.18750 0.44500
v 0.05000 0.18750 0.44500
v 0.05000 0.22250 0.44500
v -0.05000 0.22250 0.44500
v -0.12500 0.16750 0.00500
v 0.12500 0.16750 0.00500
v 0.12500 0.19250 0.00500
v -0.12500 0.19250 0.00500
v -0.12500 0.16750 0.09500
v 0.12500 0.16750 0.09500
v 0.12500 0.19250 0.09500
v -0.12500 0.19250 0.09500
v -0.11600 -0.18500 -0.18000
v -0.10400 -0.18500 -0.18000
v -0.11600 -0.19232 -0.16232
v -0.10400 -0.19232 -0.16232
v -0.11600 -0.21000 -0.15500
v -0.10400 -0.21000 -0.15500
v -0.11600 -0.22768 -0.16232
v -0.10400 -0.22768 -0.16232
v -0.11600 -0.23500 -0.18000
v -0.10400 -0.23500 -0.18000
v -0.11600 -0.22768 -0.19768
v -0.10400 -0.22768 -0.19768
v -0.11600 -0.21000 -0.20500
v -0.10400 -0.21000 -0.20500
v -0.11600 -0.19232 -0.19768
v -0.10400 -0.19232 -0.19768
v -0.11600 -0.18500 0.02000
v -0.10400 -0.18500 0.02000
v -0.11600 -0.19232 0.03768
v -0.10400 -0.19232 0.03768
v -0.11600 -0.21000 0.04500
v -0.10400 -0.21000 0.04500
v -0.11600 -0.22768 0.03768
v -0.10400 -0.22768 0.03768
v -0.11600 -0.23500 0.02000
v -0.10400 -0.23500 0.02000
v -0.11600 -0.22768 0.00232
v -0.10400 -0.22768 0.00232
v -0.11600 -0.21000 -0.00500
v -0.10400 -0.21000 -0.00500
v -0.11600 -0.19232 0.00232
v -0.10400 -0.19232 0.00232
v 0.10400 -0.18500 -0.18000
v 0.11600 -0.18500 -0.18000
v 0.10400 -0.19232 -0.16232
v 0.11600 -0.19232 -0.16232
v 0.10400 -0.21000 -0.15500
v 0.11600 -0.21000 -0.15500
v 0.10400 -0.22768 -0.16232
v 0.11600 -0.22768 -0.16232
v 0.10400 -0.23500 -0.18000
v 0.11600 -0.23500 -0.18000
v 0.10400 -0.22768 -0.19768
v 0.11600 -0.22768 -0.19768
v 0.10400 -0.21000 -0.20500
v 0.11600 -0.21000 -0.20500
v 0.10400 -0.19232 -0.19768
v 0.11600 -0.19232 -0.19768
v 0.10400 -0.18500 0.02000
v 0.11600 -0.18500 0.02000
v 0.10400 -0.19232 0.03768
v 0.11600 -0.19232 0.03768
v 0.10400 -0.21000 0.04500
v 0.11600 -0.21000 0.04500
v 0.10400 -0.22768 0.03768
v 0.11600 -0.22768 0.03768
v 0.10400 -0.23500 0.02000
v 0.11600 -0.23500 0.02000
v 0.10400 -0.22768 0.00232
v 0.11600 -0.22768 0.00232
v 0.10400 -0.21000 -0.00500
v 0.11600 -0.21000 -0.00500
v 0.10400 -0.19232 0.00232
v 0.11600 -0.19232 0.00232
g Slide
usemtl brushed_silver
f 1 2 3 4
f 5 8 7 6
f 1 5 6 2
f 2 6 7 3
f 3 7 8 4
f 4 8 5 1
g Frame
usemtl charcoal
f 9 10 11 12
f 13 16 15 14
f 9 13 14 10
f 10 14 15 11
f 11 15 16 12
f 12 16 13 9
g Grip
usemtl dark_grip
f 17 18 19 20
f 21 24 23 22
f 17 21 22 18
f 18 22 23 19
f 19 23 24 20
f 20 24 21 17
g GripInsetLeft
usemtl deep_blue
f 25 26 27 28
f 29 32 31 30
f 25 29 30 26
f 26 30 31 27
f 27 31 32 28
f 28 32 29 25
g GripInsetRight
usemtl deep_blue
f 33 34 35 36
f 37 40 39 38
f 33 37 38 34
f 34 38 39 35
f 35 39 40 36
f 36 40 37 33
g Barrel
usemtl barrel_black
f 59 57 55 53 51 49 47 45 43 41
f 42 44 46 48 50 52 54 56 58 60
f 41 43 44 42
f 43 45 46 44
f 45 47 48 46
f 47 49 50 48
f 49 51 52 50
f 51 53 54 52
f 53 55 56 54
f 55 57 58 56
f 57 59 60 58
f 59 41 42 60
g MuzzleSilver
usemtl brushed_silver
f 61 62 63 64
f 65 68 67 66
f 61 65 66 62
f 62 66 67 63
f 63 67 68 64
f 64 68 65 61
g TriggerGuard
usemtl charcoal
f 69 70 71 72
f 73 76 75 74
f 69 73 74 70
f 70 74 75 71
f 71 75 76 72
f 72 76 73 69
g Trigger
usemtl barrel_black
f 77 78 79 80
f 81 84 83 82
f 77 81 82 78
f 78 82 83 79
f 79 83 84 80
f 80 84 81 77
g RearSight
usemtl barrel_black
f 85 86 87 88
f 89 92 91 90
f 85 89 90 86
f 86 90 91 87
f 87 91 92 88
f 88 92 89 85
g FrontSight
usemtl barrel_black
f 93 94 95 96
f 97 100 99 98
f 93 97 98 94
f 94 98 99 95
f 95 99 100 96
f 96 100 97 93
g RedSideBand
usemtl red_trim
f 101 102 103 104
f 105 108 107 106
f 101 105 106 102
f 102 106 107 103
f 103 107 108 104
f 104 108 105 101
g GripScrew
usemtl brushed_silver
f 123 121 119 117 115 113 111 109
f 110 112 114 116 118 120 122 124
f 109 111 112 110
f 111 113 114 112
f 113 115 116 114
f 115 117 118 116
f 117 119 120 118
f 119 121 122 120
f 121 123 124 122
f 123 109 110 124
g GripScrew
usemtl brushed_silver
f 139 137 135 133 131 129 127 125
f 126 128 130 132 134 136 138 140
f 125 127 128 126
f 127 129 130 128
f 129 131 132 130
f 131 133 134 132
f 133 135 136 134
f 135 137 138 136
f 137 139 140 138
f 139 125 126 140
g GripScrew
usemtl brushed_silver
f 155 153 151 149 147 145 143 141
f 142 144 146 148 150 152 154 156
f 141 143 144 142
f 143 145 146 144
f 145 147 148 146
f 147 149 150 148
f 149 151 152 150
f 151 153 154 152
f 153 155 156 154
f 155 141 142 156
g GripScrew
usemtl brushed_silver
f 171 169 167 165 163 161 159 157
f 158 160 162 164 166 168 170 172
f 157 159 160 158
f 159 161 162 160
f 161 163 164 162
f 163 165 166 164
f 165 167 168 166
f 167 169 170 168
f 169 171 172 170
f 171 157 158 172
