mtllib Jessie_ShockGun.mtl
o Jessie_ShockGun
v -0.16000 -0.13000 -0.36000
v 0.16000 -0.13000 -0.36000
v 0.16000 0.13000 -0.36000
v -0.16000 0.13000 -0.36000
v -0.16000 -0.13000 0.36000
v 0.16000 -0.13000 0.36000
v 0.16000 0.13000 0.36000
v -0.16000 0.13000 0.36000
v -0.12000 0.13000 -0.30500
v 0.12000 0.13000 -0.30500
v 0.12000 0.21000 -0.30500
v -0.12000 0.21000 -0.30500
v -0.12000 0.13000 0.34500
v 0.12000 0.13000 0.34500
v 0.12000 0.21000 0.34500
v -0.12000 0.21000 0.34500
v -0.14000 -0.09000 0.32000
v 0.14000 -0.09000 0.32000
v 0.14000 0.09000 0.32000
v -0.14000 0.09000 0.32000
v -0.14000 -0.09000 0.64000
v 0.14000 -0.09000 0.64000
v 0.14000 0.09000 0.64000
v -0.14000 0.09000 0.64000
v 0.11000 0.00000 0.62000
v 0.11000 0.00000 0.78000
v 0.08899 0.06466 0.62000
v 0.08899 0.06466 0.78000
v 0.03399 0.10462 0.62000
v 0.03399 0.10462 0.78000
v -0.03399 0.10462 0.62000
v -0.03399 0.10462 0.78000
v -0.08899 0.06466 0.62000
v -0.08899 0.06466 0.78000
v -0.11000 0.00000 0.62000
v -0.11000 0.00000 0.78000
v -0.08899 -0.06466 0.62000
v -0.08899 -0.06466 0.78000
v -0.03399 -0.10462 0.62000
v -0.03399 -0.10462 0.78000
v 0.03399 -0.10462 0.62000
v 0.03399 -0.10462 0.78000
v 0.08899 -0.06466 0.62000
v 0.08899 -0.06466 0.78000
v 0.06000 0.02000 0.62000
v 0.06000 0.02000 0.80000
v 0.04854 0.05527 0.62000
v 0.04854 0.05527 0.80000
v 0.01854 0.07706 0.62000
v 0.01854 0.07706 0.80000
v -0.01854 0.07706 0.62000
v -0.01854 0.07706 0.80000
v -0.04854 0.05527 0.62000
v -0.04854 0.05527 0.80000
v -0.06000 0.02000 0.62000
v -0.06000 0.02000 0.80000
v -0.04854 -0.01527 0.62000
v -0.04854 -0.01527 0.80000
v -0.01854 -0.03706 0.62000
v -0.01854 -0.03706 0.80000
v 0.01854 -0.03706 0.62000
v 0.01854 -0.03706 0.80000
v 0.04854 -0.01527 0.62000
v 0.04854 -0.01527 0.80000
v -0.08000 -0.44430 -0.18650
v 0.08000 -0.44430 -0.18650
v 0.08000 -0.11440 -0.26875
v -0.08000 -0.11440 -0.26875
v -0.08000 -0.40560 -0.03125
v 0.08000 -0.40560 -0.03125
v 0.08000 -0.07570 -0.11350
v -0.08000 -0.07570 -0.11350
v -0.10000 -0.19500 0.01000
v 0.10000 -0.19500 0.01000
v 0.10000 -0.09500 0.01000
v -0.10000 -0.09500 0.01000
v -0.10000 -0.19500 0.19000
v 0.10000 -0.19500 0.19000
v 0.10000 -0.09500 0.19000
v -0.10000 -0.09500 0.19000
v -0.18000 -0.07000 -0.18000
v -0.16000 -0.07000 -0.18000
v -0.16000 0.11000 -0.18000
v -0.18000 0.11000 -0.18000
v -0.18000 -0.07000 0.30000
v -0.16000 -0.07000 0.30000
v -0.16000 0.11000 0.30000
v -0.18000 0.11000 0.30000
v 0.16000 -0.07000 -0.18000
v 0.18000 -0.07000 -0.18000
v 0.18000 0.11000 -0.18000
v 0.16000 0.11000 -0.18000
v 0.16000 -0.07000 0.30000
v 0.18000 -0.07000 0.30000
v 0.18000 0.11000 0.30000
v 0.16000 0.11000 0.30000
v -0.17000 -0.14750 -0.19750
v 0.17000 -0.14750 -0.19750
v 0.17000 -0.11250 -0.19750
v -0.17000 -0.11250 -0.19750
v -0.17000 -0.14750 -0.16250
v 0.17000 -0.14750 -0.16250
v 0.17000 -0.11250 -0.16250
v -0.17000 -0.11250 -0.16250
v -0.17000 -0.14750 -0.03750
v 0.17000 -0.14750 -0.03750
v 0.17000 -0.11250 -0.03750
v -0.17000 -0.11250 -0.03750
v -0.17000 -0.14750 -0.00250
v 0.17000 -0.14750 -0.00250
v 0.17000 -0.11250 -0.00250
v -0.17000 -0.11250 -0.00250
v -0.17000 -0.14750 0.12250
v 0.17000 -0.14750 0.12250
v 0.17000 -0.11250 0.12250
v -0.17000 -0.11250 0.12250
v -0.17000 -0.14750 0.15750
v 0.17000 -0.14750 0.15750
v 0.17000 -0.11250 0.15750
v -0.17000 -0.11250 0.15750
v -0.17000 -0.14750 0.28250
v 0.17000 -0.14750 0.28250
v 0.17000 -0.11250 0.28250
v -0.17000 -0.11250 0.28250
v -0.17000 -0.14750 0.31750
v 0.17000 -0.14750 0.31750
v 0.17000 -0.11250 0.31750
v -0.17000 -0.11250 0.31750
v -0.12500 -0.07000 -0.55000
v 0.12500 -0.07000 -0.55000
v 0.12500 0.11000 -0.55000
v -0.12500 0.11000 -0.55000
v -0.12500 -0.07000 -0.37000
v 0.12500 -0.07000 -0.37000
v 0.12500 0.11000 -0.37000
v -0.12500 0.11000 -0.37000
g MainReceiver
usemtl white
f 1 2 3 4
f 5 8 7 6
f 1 5 6 2
f 2 6 7 3
f 3 7 8 4
f 4 8 5 1
g UpperRail
usemtl gun_black
f 9 10 11 12
f 13 16 15 14
f 9 13 14 10
f 10 14 15 11
f 11 15 16 12
f 12 16 13 9
g BarrelHousing
usemtl white
f 17 18 19 20
f 21 24 23 22
f 17 21 22 18
f 18 22 23 19
f 19 23 24 20
f 20 24 21 17
g PulseMuzzle
usemtl blue
f 43 41 39 37 35 33 31 29 27 25
f 26 28 30 32 34 36 38 40 42 44
f 25 27 28 26
f 27 29 30 28
f 29 31 32 30
f 31 33 34 32
f 33 35 36 34
f 35 37 38 36
f 37 39 40 38
f 39 41 42 40
f 41 43 44 42
f 43 25 26 44
g EnergyCore
usemtl cyan
f 63 61 59 57 55 53 51 49 47 45
f 46 48 50 52 54 56 58 60 62 64
f 45 47 48 46
f 47 49 50 48
f 49 51 52 50
f 51 53 54 52
f 53 55 56 54
f 55 57 58 56
f 57 59 60 58
f 59 61 62 60
f 61 63 64 62
f 63 45 46 64
g Grip
usemtl handle
f 65 66 67 68
f 69 72 71 70
f 65 69 70 66
f 66 70 71 67
f 67 71 72 68
f 68 72 69 65
g TriggerGuard
usemtl gun_black
f 73 74 75 76
f 77 80 79 78
f 73 77 78 74
f 74 78 79 75
f 75 79 80 76
f 76 80 77 73
g SideRedStripeL
usemtl red
f 81 82 83 84
f 85 88 87 86
f 81 85 86 82
f 82 86 87 83
f 83 87 88 84
f 84 88 85 81
g SideRedStripeR
usemtl red
f 89 90 91 92
f 93 96 95 94
f 89 93 94 90
f 90 94 95 91
f 91 95 96 92
f 92 96 93 89
g Vents
usemtl steel
f 97 98 99 100
f 101 104 103 102
f 97 101 102 98
f 98 102 103 99
f 99 103 104 100
f 100 104 101 97
g Vents
usemtl steel
f 105 106 107 108
f 109 112 111 110
f 105 109 110 106
f 106 110 111 107
f 107 111 112 108
f 108 112 109 105
g Vents
usemtl steel
f 113 114 115 116
f 117 120 119 118
f 113 117 118 114
f 114 118 119 115
f 115 119 120 116
f 116 120 117 113
g Vents
usemtl steel
f 121 122 123 124
f 125 128 127 126
f 121 125 126 122
f 122 126 127 123
f 123 127 128 124
f 124 128 125 121
g StockStub
usemtl gun_black
f 129 130 131 132
f 133 136 135 134
f 129 133 134 130
f 130 134 135 131
f 131 135 136 132
f 132 136 133 129
