mtllib Leon_NinjaStar.mtl
o Leon_NinjaStar
v 0.00000 0.09000 -0.04000
v -0.21000 -0.09000 -0.04000
v 0.21000 -0.09000 -0.04000
v 0.00000 0.09000 0.04000
v -0.21000 -0.09000 0.04000
v 0.21000 -0.09000 0.04000
v 0.00000 0.06000 -0.03300
v -0.18000 -0.06000 -0.03300
v 0.18000 -0.06000 -0.03300
v 0.00000 0.06000 0.05700
v -0.18000 -0.06000 0.05700
v 0.18000 -0.06000 0.05700
v -0.09000 0.00000 -0.04000
v 0.09000 -0.21000 -0.04000
v 0.09000 0.21000 -0.04000
v -0.09000 0.00000 0.04000
v 0.09000 -0.21000 0.04000
v 0.09000 0.21000 0.04000
v -0.06000 0.00000 -0.03300
v 0.06000 -0.18000 -0.03300
v 0.06000 0.18000 -0.03300
v -0.06000 0.00000 0.05700
v 0.06000 -0.18000 0.05700
v 0.06000 0.18000 0.05700
v -0.00000 -0.09000 -0.04000
v 0.21000 0.09000 -0.04000
v -0.21000 0.09000 -0.04000
v -0.00000 -0.09000 0.04000
v 0.21000 0.09000 0.04000
v -0.21000 0.09000 0.04000
v -0.00000 -0.06000 -0.03300
v 0.18000 0.06000 -0.03300
v -0.18000 0.06000 -0.03300
v -0.00000 -0.06000 0.05700
v 0.18000 0.06000 0.05700
v -0.18000 0.06000 0.05700
v 0.09000 -0.00000 -0.04000
v -0.09000 0.21000 -0.04000
v -0.09000 -0.21000 -0.04000
v 0.09000 -0.00000 0.04000
v -0.09000 0.21000 0.04000
v -0.09000 -0.21000 0.04000
v 0.06000 -0.00000 -0.03300
v -0.06000 0.18000 -0.03300
v -0.06000 -0.18000 -0.03300
v 0.06000 -0.00000 0.05700
v -0.06000 0.18000 0.05700
v -0.06000 -0.18000 0.05700
v 0.14000 0.00000 -0.01000
v 0.14000 0.00000 0.07000
v 0.12124 0.07000 -0.01000
v 0.12124 0.07000 0.07000
v 0.07000 0.12124 -0.01000
v 0.07000 0.12124 0.07000
v 0.00000 0.14000 -0.01000
v 0.00000 0.14000 0.07000
v -0.07000 0.12124 -0.01000
v -0.07000 0.12124 0.07000
v -0.12124 0.07000 -0.01000
v -0.12124 0.07000 0.07000
v -0.14000 0.00000 -0.01000
v -0.14000 0.00000 0.07000
v -0.12124 -0.07000 -0.01000
v -0.12124 -0.07000 0.07000
v -0.07000 -0.12124 -0.01000
v -0.07000 -0.12124 0.07000
v -0.00000 -0.14000 -0.01000
v -0.00000 -0.14000 0.07000
v 0.07000 -0.12124 -0.01000
v 0.07000 -0.12124 0.07000
v 0.12124 -0.07000 -0.01000
v 0.12124 -0.07000 0.07000
v 0.07500 0.00000 0.06250
v 0.07500 0.00000 0.08750
v 0.06495 0.03750 0.06250
v 0.06495 0.03750 0.08750
v 0.03750 0.06495 0.06250
v 0.03750 0.06495 0.08750
v 0.00000 0.07500 0.06250
v 0.00000 0.07500 0.08750
v -0.03750 0.06495 0.06250
v -0.03750 0.06495 0.08750
v -0.06495 0.03750 0.06250
v -0.06495 0.03750 0.08750
v -0.07500 0.00000 0.06250
v -0.07500 0.00000 0.08750
v -0.06495 -0.03750 0.06250
v -0.06495 -0.03750 0.08750
v -0.03750 -0.06495 0.06250
v -0.03750 -0.06495 0.08750
v -0.00000 -0.07500 0.06250
v -0.00000 -0.07500 0.08750
v 0.03750 -0.06495 0.06250
v 0.03750 -0.06495 0.08750
v 0.06495 -0.03750 0.06250
v 0.06495 -0.03750 0.08750
v 0.01061 0.12757 0.07300
v 0.04243 0.15939 0.07300
v -0.01061 0.21243 0.07300
v -0.04243 0.18061 0.07300
v 0.01061 0.12757 0.08700
v 0.04243 0.15939 0.08700
v -0.01061 0.21243 0.08700
v -0.04243 0.18061 0.08700
v 0.04243 0.18061 0.07300
v 0.01061 0.21243 0.07300
v -0.04243 0.15939 0.07300
v -0.01061 0.12757 0.07300
v 0.04243 0.18061 0.08700
v 0.01061 0.21243 0.08700
v -0.04243 0.15939 0.08700
v -0.01061 0.12757 0.08700
v -0.01061 0.21243 0.07300
v -0.04243 0.18061 0.07300
v 0.01061 0.12757 0.07300
v 0.04243 0.15939 0.07300
v -0.01061 0.21243 0.08700
v -0.04243 0.18061 0.08700
v 0.01061 0.12757 0.08700
v 0.04243 0.15939 0.08700
v -0.04243 0.15939 0.07300
v -0.01061 0.12757 0.07300
v 0.04243 0.18061 0.07300
v 0.01061 0.21243 0.07300
v -0.04243 0.15939 0.08700
v -0.01061 0.12757 0.08700
v 0.04243 0.18061 0.08700
v 0.01061 0.21243 0.08700
g Blade
usemtl black
f 1 2 3
f 4 6 5
f 1 4 5 2
f 2 5 6 3
f 3 6 4 1
g OrangeEdge
usemtl orange
f 7 8 9
f 10 12 11
f 7 10 11 8
f 8 11 12 9
f 9 12 10 7
g Blade
usemtl black
f 13 14 15
f 16 18 17
f 13 16 17 14
f 14 17 18 15
f 15 18 16 13
g OrangeEdge
usemtl orange
f 19 20 21
f 22 24 23
f 19 22 23 20
f 20 23 24 21
f 21 24 22 19
g Blade
usemtl black
f 25 26 27
f 28 30 29
f 25 28 29 26
f 26 29 30 27
f 27 30 28 25
g OrangeEdge
usemtl orange
f 31 32 33
f 34 36 35
f 31 34 35 32
f 32 35 36 33
f 33 36 34 31
g Blade
usemtl black
f 37 38 39
f 40 42 41
f 37 40 41 38
f 38 41 42 39
f 39 42 40 37
g OrangeEdge
usemtl orange
f 43 44 45
f 46 48 47
f 43 46 47 44
f 44 47 48 45
f 45 48 46 43
g CenterRingOuter
usemtl rim
f 71 69 67 65 63 61 59 57 55 53 51 49
f 50 52 54 56 58 60 62 64 66 68 70 72
f 49 51 52 50
f 51 53 54 52
f 53 55 56 54
f 55 57 58 56
f 57 59 60 58
f 59 61 62 60
f 61 63 64 62
f 63 65 66 64
f 65 67 68 66
f 67 69 70 68
f 69 71 72 70
f 71 49 50 72
g CenterHoleDark
usemtl black
f 95 93 91 89 87 85 83 81 79 77 75 73
f 74 76 78 80 82 84 86 88 90 92 94 96
f 73 75 76 74
f 75 77 78 76
f 77 79 80 78
f 79 81 82 80
f 81 83 84 82
f 83 85 86 84
f 85 87 88 86
f 87 89 90 88
f 89 91 92 90
f 91 93 94 92
f 93 95 96 94
f 95 73 74 96
g YellowMark
usemtl yellow
f 97 98 99 100
f 101 104 103 102
f 97 101 102 98
f 98 102 103 99
f 99 103 104 100
f 100 104 101 97
g YellowMark
usemtl yellow
f 105 106 107 108
f 109 112 111 110
f 105 109 110 106
f 106 110 111 107
f 107 111 112 108
f 108 112 109 105
g YellowMark
usemtl yellow
f 113 114 115 116
f 117 120 119 118
f 113 117 118 114
f 114 118 119 115
f 115 119 120 116
f 116 120 117 113
g YellowMark
usemtl yellow
f 121 122 123 124
f 125 128 127 126
f 121 125 126 122
f 122 126 127 123
f 123 127 128 124
f 124 128 125 121
