mtllib Piper_Umbrella.mtl
o Piper_Umbrella
v 0.03800 -0.86000 0.00000
v 0.03800 0.35000 0.00000
v 0.03571 -0.86000 0.01300
v 0.03571 0.35000 0.01300
v 0.02911 -0.86000 0.02443
v 0.02911 0.35000 0.02443
v 0.01900 -0.86000 0.03291
v 0.01900 0.35000 0.03291
v 0.00660 -0.86000 0.03742
v 0.00660 0.35000 0.03742
v -0.00660 -0.86000 0.03742
v -0.00660 0.35000 0.03742
v -0.01900 -0.86000 0.03291
v -0.01900 0.35000 0.03291
v -0.02911 -0.86000 0.02443
v -0.02911 0.35000 0.02443
v -0.03571 -0.86000 0.01300
v -0.03571 0.35000 0.01300
v -0.03800 -0.86000 0.00000
v -0.03800 0.35000 0.00000
v -0.03571 -0.86000 -0.01300
v -0.03571 0.35000 -0.01300
v -0.02911 -0.86000 -0.02443
v -0.02911 0.35000 -0.02443
v -0.01900 -0.86000 -0.03291
v -0.01900 0.35000 -0.03291
v -0.00660 -0.86000 -0.03742
v -0.00660 0.35000 -0.03742
v 0.00660 -0.86000 -0.03742
v 0.00660 0.35000 -0.03742
v 0.01900 -0.86000 -0.03291
v 0.01900 0.35000 -0.03291
v 0.02911 -0.86000 -0.02443
v 0.02911 0.35000 -0.02443
v 0.03571 -0.86000 -0.01300
v 0.03571 0.35000 -0.01300
v 0.02600 0.24000 0.00000
v 0.02600 0.78000 0.00000
v 0.02443 0.24000 0.00889
v 0.02443 0.78000 0.00889
v 0.01992 0.24000 0.01671
v 0.01992 0.78000 0.01671
v 0.01300 0.24000 0.02252
v 0.01300 0.78000 0.02252
v 0.00451 0.24000 0.02561
v 0.00451 0.78000 0.02561
v -0.00451 0.24000 0.02561
v -0.00451 0.78000 0.02561
v -0.01300 0.24000 0.02252
v -0.01300 0.78000 0.02252
v -0.01992 0.24000 0.01671
v -0.01992 0.78000 0.01671
v -0.02443 0.24000 0.00889
v -0.02443 0.78000 0.00889
v -0.02600 0.24000 0.00000
v -0.02600 0.78000 0.00000
v -0.02443 0.24000 -0.00889
v -0.02443 0.78000 -0.00889
v -0.01992 0.24000 -0.01671
v -0.01992 0.78000 -0.01671
v -0.01300 0.24000 -0.02252
v -0.01300 0.78000 -0.02252
v -0.00451 0.24000 -0.02561
v -0.00451 0.78000 -0.02561
v 0.00451 0.24000 -0.02561
v 0.00451 0.78000 -0.02561
v 0.01300 0.24000 -0.02252
v 0.01300 0.78000 -0.02252
v 0.01992 0.24000 -0.01671
v 0.01992 0.78000 -0.01671
v 0.02443 0.24000 -0.00889
v 0.02443 0.78000 -0.00889
v 0.07000 -0.94000 0.00000
v 0.07000 -0.82000 0.00000
v 0.06578 -0.94000 0.02394
v 0.06578 -0.82000 0.02394
v 0.05362 -0.94000 0.04500
v 0.05362 -0.82000 0.04500
v 0.03500 -0.94000 0.06062
v 0.03500 -0.82000 0.06062
v 0.01216 -0.94000 0.06894
v 0.01216 -0.82000 0.06894
v -0.01216 -0.94000 0.06894
v -0.01216 -0.82000 0.06894
v -0.03500 -0.94000 0.06062
v -0.03500 -0.82000 0.06062
v -0.05362 -0.94000 0.04500
v -0.05362 -0.82000 0.04500
v -0.06578 -0.94000 0.02394
v -0.06578 -0.82000 0.02394
v -0.07000 -0.94000 0.00000
v -0.07000 -0.82000 0.00000
v -0.06578 -0.94000 -0.02394
v -0.06578 -0.82000 -0.02394
v -0.05362 -0.94000 -0.04500
v -0.05362 -0.82000 -0.04500
v -0.03500 -0.94000 -0.06062
v -0.03500 -0.82000 -0.06062
v -0.01216 -0.94000 -0.06894
v -0.01216 -0.82000 -0.06894
v 0.01216 -0.94000 -0.06894
v 0.01216 -0.82000 -0.06894
v 0.03500 -0.94000 -0.06062
v 0.03500 -0.82000 -0.06062
v 0.05362 -0.94000 -0.04500
v 0.05362 -0.82000 -0.04500
v 0.06578 -0.94000 -0.02394
v 0.06578 -0.82000 -0.02394
v -0.02500 -0.90500 -0.03500
v 0.22500 -0.90500 -0.03500
v 0.22500 -0.85500 -0.03500
v -0.02500 -0.85500 -0.03500
v -0.02500 -0.90500 0.03500
v 0.22500 -0.90500 0.03500
v 0.22500 -0.85500 0.03500
v -0.02500 -0.85500 0.03500
v 0.00000 0.86000 0.00000
v 0.00000 0.54000 0.00000
v 0.86000 0.54000 0.00000
v 0.83070 0.54000 0.22258
v 0.74478 0.54000 0.43000
v 0.60811 0.54000 0.60811
v 0.43000 0.54000 0.74478
v 0.22258 0.54000 0.83070
v 0.00000 0.54000 0.86000
v -0.22258 0.54000 0.83070
v -0.43000 0.54000 0.74478
v -0.60811 0.54000 0.60811
v -0.74478 0.54000 0.43000
v -0.83070 0.54000 0.22258
v -0.86000 0.54000 0.00000
v -0.83070 0.54000 -0.22258
v -0.74478 0.54000 -0.43000
v -0.60811 0.54000 -0.60811
v -0.43000 0.54000 -0.74478
v -0.22258 0.54000 -0.83070
v -0.00000 0.54000 -0.86000
v 0.22258 0.54000 -0.83070
v 0.43000 0.54000 -0.74478
v 0.60811 0.54000 -0.60811
v 0.74478 0.54000 -0.43000
v 0.83070 0.54000 -0.22258
v 0.83070 0.51300 -0.00000
v 0.86000 0.51300 -0.00000
v 0.86000 0.54300 -0.00000
v 0.83070 0.54300 -0.00000
v 0.83070 0.51300 0.22258
v 0.86000 0.51300 0.22258
v 0.86000 0.54300 0.22258
v 0.83070 0.54300 0.22258
v 0.74478 0.51300 0.22258
v 0.83070 0.51300 0.22258
v 0.83070 0.54300 0.22258
v 0.74478 0.54300 0.22258
v 0.74478 0.51300 0.43000
v 0.83070 0.51300 0.43000
v 0.83070 0.54300 0.43000
v 0.74478 0.54300 0.43000
v 0.60811 0.51300 0.43000
v 0.74478 0.51300 0.43000
v 0.74478 0.54300 0.43000
v 0.60811 0.54300 0.43000
v 0.60811 0.51300 0.60811
v 0.74478 0.51300 0.60811
v 0.74478 0.54300 0.60811
v 0.60811 0.54300 0.60811
v 0.43000 0.51300 0.60811
v 0.60811 0.51300 0.60811
v 0.60811 0.54300 0.60811
v 0.43000 0.54300 0.60811
v 0.43000 0.51300 0.74478
v 0.60811 0.51300 0.74478
v 0.60811 0.54300 0.74478
v 0.43000 0.54300 0.74478
v 0.22258 0.51300 0.74478
v 0.43000 0.51300 0.74478
v 0.43000 0.54300 0.74478
v 0.22258 0.54300 0.74478
v 0.22258 0.51300 0.83070
v 0.43000 0.51300 0.83070
v 0.43000 0.54300 0.83070
v 0.22258 0.54300 0.83070
v 0.00000 0.51300 0.83070
v 0.22258 0.51300 0.83070
v 0.22258 0.54300 0.83070
v 0.00000 0.54300 0.83070
v 0.00000 0.51300 0.86000
v 0.22258 0.51300 0.86000
v 0.22258 0.54300 0.86000
v 0.00000 0.54300 0.86000
v -0.22258 0.51300 0.83070
v 0.00000 0.51300 0.83070
v 0.00000 0.54300 0.83070
v -0.22258 0.54300 0.83070
v -0.22258 0.51300 0.86000
v 0.00000 0.51300 0.86000
v 0.00000 0.54300 0.86000
v -0.22258 0.54300 0.86000
v -0.43000 0.51300 0.74478
v -0.22258 0.51300 0.74478
v -0.22258 0.54300 0.74478
v -0.43000 0.54300 0.74478
v -0.43000 0.51300 0.83070
v -0.22258 0.51300 0.83070
v -0.22258 0.54300 0.83070
v -0.43000 0.54300 0.83070
v -0.60811 0.51300 0.60811
v -0.43000 0.51300 0.60811
v -0.43000 0.54300 0.60811
v -0.60811 0.54300 0.60811
v -0.60811 0.51300 0.74478
v -0.43000 0.51300 0.74478
v -0.43000 0.54300 0.74478
v -0.60811 0.54300 0.74478
v -0.74478 0.51300 0.43000
v -0.60811 0.51300 0.43000
v -0.60811 0.54300 0.43000
v -0.74478 0.54300 0.43000
v -0.74478 0.51300 0.60811
v -0.60811 0.51300 0.60811
v -0.60811 0.54300 0.60811
v -0.74478 0.54300 0.60811
v -0.83070 0.51300 0.22258
v -0.74478 0.51300 0.22258
v -0.74478 0.54300 0.22258
v -0.83070 0.54300 0.22258
v -0.83070 0.51300 0.43000
v -0.74478 0.51300 0.43000
v -0.74478 0.54300 0.43000
v -0.83070 0.54300 0.43000
v -0.86000 0.51300 0.00000
v -0.83070 0.51300 0.00000
v -0.83070 0.54300 0.00000
v -0.86000 0.54300 0.00000
v -0.86000 0.51300 0.22258
v -0.83070 0.51300 0.22258
v -0.83070 0.54300 0.22258
v -0.86000 0.54300 0.22258
v -0.86000 0.51300 -0.22258
v -0.83070 0.51300 -0.22258
v -0.83070 0.54300 -0.22258
v -0.86000 0.54300 -0.22258
v -0.86000 0.51300 0.00000
v -0.83070 0.51300 0.00000
v -0.83070 0.54300 0.00000
v -0.86000 0.54300 0.00000
v -0.83070 0.51300 -0.43000
v -0.74478 0.51300 -0.43000
v -0.74478 0.54300 -0.43000
v -0.83070 0.54300 -0.43000
v -0.83070 0.51300 -0.22258
v -0.74478 0.51300 -0.22258
v -0.74478 0.54300 -0.22258
v -0.83070 0.54300 -0.22258
v -0.74478 0.51300 -0.60811
v -0.60811 0.51300 -0.60811
v -0.60811 0.54300 -0.60811
v -0.74478 0.54300 -0.60811
v -0.74478 0.51300 -0.43000
v -0.60811 0.51300 -0.43000
v -0.60811 0.54300 -0.43000
v -0.74478 0.54300 -0.43000
v -0.60811 0.51300 -0.74478
v -0.43000 0.51300 -0.74478
v -0.43000 0.54300 -0.74478
v -0.60811 0.54300 -0.74478
v -0.60811 0.51300 -0.60811
v -0.43000 0.51300 -0.60811
v -0.43000 0.54300 -0.60811
v -0.60811 0.54300 -0.60811
v -0.43000 0.51300 -0.83070
v -0.22258 0.51300 -0.83070
v -0.22258 0.54300 -0.83070
v -0.43000 0.54300 -0.83070
v -0.43000 0.51300 -0.74478
v -0.22258 0.51300 -0.74478
v -0.22258 0.54300 -0.74478
v -0.43000 0.54300 -0.74478
v -0.22258 0.51300 -0.86000
v -0.00000 0.51300 -0.86000
v -0.00000 0.54300 -0.86000
v -0.22258 0.54300 -0.86000
v -0.22258 0.51300 -0.83070
v -0.00000 0.51300 -0.83070
v -0.00000 0.54300 -0.83070
v -0.22258 0.54300 -0.83070
v -0.00000 0.51300 -0.86000
v 0.22258 0.51300 -0.86000
v 0.22258 0.54300 -0.86000
v -0.00000 0.54300 -0.86000
v -0.00000 0.51300 -0.83070
v 0.22258 0.51300 -0.83070
v 0.22258 0.54300 -0.83070
v -0.00000 0.54300 -0.83070
v 0.22258 0.51300 -0.83070
v 0.43000 0.51300 -0.83070
v 0.43000 0.54300 -0.83070
v 0.22258 0.54300 -0.83070
v 0.22258 0.51300 -0.74478
v 0.43000 0.51300 -0.74478
v 0.43000 0.54300 -0.74478
v 0.22258 0.54300 -0.74478
v 0.43000 0.51300 -0.74478
v 0.60811 0.51300 -0.74478
v 0.60811 0.54300 -0.74478
v 0.43000 0.54300 -0.74478
v 0.43000 0.51300 -0.60811
v 0.60811 0.51300 -0.60811
v 0.60811 0.54300 -0.60811
v 0.43000 0.54300 -0.60811
v 0.60811 0.51300 -0.60811
v 0.74478 0.51300 -0.60811
v 0.74478 0.54300 -0.60811
v 0.60811 0.54300 -0.60811
v 0.60811 0.51300 -0.43000
v 0.74478 0.51300 -0.43000
v 0.74478 0.54300 -0.43000
v 0.60811 0.54300 -0.43000
v 0.74478 0.51300 -0.43000
v 0.83070 0.51300 -0.43000
v 0.83070 0.54300 -0.43000
v 0.74478 0.54300 -0.43000
v 0.74478 0.51300 -0.22258
v 0.83070 0.51300 -0.22258
v 0.83070 0.54300 -0.22258
v 0.74478 0.54300 -0.22258
v 0.83070 0.51300 -0.22258
v 0.86000 0.51300 -0.22258
v 0.86000 0.54300 -0.22258
v 0.83070 0.54300 -0.22258
v 0.83070 0.51300 0.00000
v 0.86000 0.51300 0.00000
v 0.86000 0.54300 0.00000
v 0.83070 0.54300 0.00000
v 0.02150 0.62500 -0.01300
v 0.83850 0.62500 -0.01300
v 0.83850 0.64500 -0.01300
v 0.02150 0.64500 -0.01300
v 0.02150 0.62500 0.01300
v 0.83850 0.62500 0.01300
v 0.83850 0.64500 0.01300
v 0.02150 0.64500 0.01300
v 0.01520 0.62500 0.29106
v 0.59291 0.62500 0.29106
v 0.59291 0.64500 0.29106
v 0.01520 0.64500 0.29106
v 0.01520 0.62500 0.31706
v 0.59291 0.62500 0.31706
v 0.59291 0.64500 0.31706
v 0.01520 0.64500 0.31706
v -0.01300 0.62500 0.02150
v 0.01300 0.62500 0.02150
v 0.01300 0.64500 0.02150
v -0.01300 0.64500 0.02150
v -0.01300 0.62500 0.83850
v 0.01300 0.62500 0.83850
v 0.01300 0.64500 0.83850
v -0.01300 0.64500 0.83850
v -0.31706 0.62500 0.01520
v -0.29106 0.62500 0.01520
v -0.29106 0.64500 0.01520
v -0.31706 0.64500 0.01520
v -0.31706 0.62500 0.59291
v -0.29106 0.62500 0.59291
v -0.29106 0.64500 0.59291
v -0.31706 0.64500 0.59291
v -0.83850 0.62500 -0.01300
v -0.02150 0.62500 -0.01300
v -0.02150 0.64500 -0.01300
v -0.83850 0.64500 -0.01300
v -0.83850 0.62500 0.01300
v -0.02150 0.62500 0.01300
v -0.02150 0.64500 0.01300
v -0.83850 0.64500 0.01300
v -0.59291 0.62500 -0.31706
v -0.01520 0.62500 -0.31706
v -0.01520 0.64500 -0.31706
v -0.59291 0.64500 -0.31706
v -0.59291 0.62500 -0.29106
v -0.01520 0.62500 -0.29106
v -0.01520 0.64500 -0.29106
v -0.59291 0.64500 -0.29106
v -0.01300 0.62500 -0.83850
v 0.01300 0.62500 -0.83850
v 0.01300 0.64500 -0.83850
v -0.01300 0.64500 -0.83850
v -0.01300 0.62500 -0.02150
v 0.01300 0.62500 -0.02150
v 0.01300 0.64500 -0.02150
v -0.01300 0.64500 -0.02150
v 0.29106 0.62500 -0.59291
v 0.31706 0.62500 -0.59291
v 0.31706 0.64500 -0.59291
v 0.29106 0.64500 -0.59291
v 0.29106 0.62500 -0.01520
v 0.31706 0.62500 -0.01520
v 0.31706 0.64500 -0.01520
v 0.29106 0.64500 -0.01520
v 0.06000 0.85000 0.00000
v 0.06000 0.95000 0.00000
v 0.05638 0.85000 0.02052
v 0.05638 0.95000 0.02052
v 0.04596 0.85000 0.03857
v 0.04596 0.95000 0.03857
v 0.03000 0.85000 0.05196
v 0.03000 0.95000 0.05196
v 0.01042 0.85000 0.05909
v 0.01042 0.95000 0.05909
v -0.01042 0.85000 0.05909
v -0.01042 0.95000 0.05909
v -0.03000 0.85000 0.05196
v -0.03000 0.95000 0.05196
v -0.04596 0.85000 0.03857
v -0.04596 0.95000 0.03857
v -0.05638 0.85000 0.02052
v -0.05638 0.95000 0.02052
v -0.06000 0.85000 0.00000
v -0.06000 0.95000 0.00000
v -0.05638 0.85000 -0.02052
v -0.05638 0.95000 -0.02052
v -0.04596 0.85000 -0.03857
v -0.04596 0.95000 -0.03857
v -0.03000 0.85000 -0.05196
v -0.03000 0.95000 -0.05196
v -0.01042 0.85000 -0.05909
v -0.01042 0.95000 -0.05909
v 0.01042 0.85000 -0.05909
v 0.01042 0.95000 -0.05909
v 0.03000 0.85000 -0.05196
v 0.03000 0.95000 -0.05196
v 0.04596 0.85000 -0.03857
v 0.04596 0.95000 -0.03857
v 0.05638 0.85000 -0.02052
v 0.05638 0.95000 -0.02052
g StraightHandle
usemtl handle
f 35 33 31 29 27 25 23 21 19 17 15 13 11 9 7 5 3 1
f 2 4 6 8 10 12 14 16 18 20 22 24 26 28 30 32 34 36
f 1 3 4 2
f 3 5 6 4
f 5 7 8 6
f 7 9 10 8
f 9 11 12 10
f 11 13 14 12
f 13 15 16 14
f 15 17 18 16
f 17 19 20 18
f 19 21 22 20
f 21 23 24 22
f 23 25 26 24
f 25 27 28 26
f 27 29 30 28
f 29 31 32 30
f 31 33 34 32
f 33 35 36 34
f 35 1 2 36
g MetalFerrule
usemtl metal
f 71 69 67 65 63 61 59 57 55 53 51 49 47 45 43 41 39 37
f 38 40 42 44 46 48 50 52 54 56 58 60 62 64 66 68 70 72
f 37 39 40 38
f 39 41 42 40
f 41 43 44 42
f 43 45 46 44
f 45 47 48 46
f 47 49 50 48
f 49 51 52 50
f 51 53 54 52
f 53 55 56 54
f 55 57 58 56
f 57 59 60 58
f 59 61 62 60
f 61 63 64 62
f 63 65 66 64
f 65 67 68 66
f 67 69 70 68
f 69 71 72 70
f 71 37 38 72
g GripKnob
usemtl black
f 107 105 103 101 99 97 95 93 91 89 87 85 83 81 79 77 75 73
f 74 76 78 80 82 84 86 88 90 92 94 96 98 100 102 104 106 108
f 73 75 76 74
f 75 77 78 76
f 77 79 80 78
f 79 81 82 80
f 81 83 84 82
f 83 85 86 84
f 85 87 88 86
f 87 89 90 88
f 89 91 92 90
f 91 93 94 92
f 93 95 96 94
f 95 97 98 96
f 97 99 100 98
f 99 101 102 100
f 101 103 104 102
f 103 105 106 104
f 105 107 108 106
f 107 73 74 108
g HandleGuard
usemtl handle
f 109 110 111 112
f 113 116 115 114
f 109 113 114 110
f 110 114 115 111
f 111 115 116 112
f 112 116 113 109
g CanopyTop_00
usemtl red
f 117 119 120
g CanopyUnder_00
f 117 120 119
g CanopyInner_00
f 118 120 119
g CanopyTop_01
usemtl yellow
f 117 120 121
g CanopyUnder_01
f 117 121 120
g CanopyInner_01
f 118 121 120
g CanopyTop_02
usemtl red
f 117 121 122
g CanopyUnder_02
f 117 122 121
g CanopyInner_02
f 118 122 121
g CanopyTop_03
usemtl yellow
f 117 122 123
g CanopyUnder_03
f 117 123 122
g CanopyInner_03
f 118 123 122
g CanopyTop_04
usemtl red
f 117 123 124
g CanopyUnder_04
f 117 124 123
g CanopyInner_04
f 118 124 123
g CanopyTop_05
usemtl yellow
f 117 124 125
g CanopyUnder_05
f 117 125 124
g CanopyInner_05
f 118 125 124
g CanopyTop_06
usemtl red
f 117 125 126
g CanopyUnder_06
f 117 126 125
g CanopyInner_06
f 118 126 125
g CanopyTop_07
usemtl yellow
f 117 126 127
g CanopyUnder_07
f 117 127 126
g CanopyInner_07
f 118 127 126
g CanopyTop_08
usemtl red
f 117 127 128
g CanopyUnder_08
f 117 128 127
g CanopyInner_08
f 118 128 127
g CanopyTop_09
usemtl yellow
f 117 128 129
g CanopyUnder_09
f 117 129 128
g CanopyInner_09
f 118 129 128
g CanopyTop_10
usemtl red
f 117 129 130
g CanopyUnder_10
f 117 130 129
g CanopyInner_10
f 118 130 129
g CanopyTop_11
usemtl yellow
f 117 130 131
g CanopyUnder_11
f 117 131 130
g CanopyInner_11
f 118 131 130
g CanopyTop_12
usemtl red
f 117 131 132
g CanopyUnder_12
f 117 132 131
g CanopyInner_12
f 118 132 131
g CanopyTop_13
usemtl yellow
f 117 132 133
g CanopyUnder_13
f 117 133 132
g CanopyInner_13
f 118 133 132
g CanopyTop_14
usemtl red
f 117 133 134
g CanopyUnder_14
f 117 134 133
g CanopyInner_14
f 118 134 133
g CanopyTop_15
usemtl yellow
f 117 134 135
g CanopyUnder_15
f 117 135 134
g CanopyInner_15
f 118 135 134
g CanopyTop_16
usemtl red
f 117 135 136
g CanopyUnder_16
f 117 136 135
g CanopyInner_16
f 118 136 135
g CanopyTop_17
usemtl yellow
f 117 136 137
g CanopyUnder_17
f 117 137 136
g CanopyInner_17
f 118 137 136
g CanopyTop_18
usemtl red
f 117 137 138
g CanopyUnder_18
f 117 138 137
g CanopyInner_18
f 118 138 137
g CanopyTop_19
usemtl yellow
f 117 138 139
g CanopyUnder_19
f 117 139 138
g CanopyInner_19
f 118 139 138
g CanopyTop_20
usemtl red
f 117 139 140
g CanopyUnder_20
f 117 140 139
g CanopyInner_20
f 118 140 139
g CanopyTop_21
usemtl yellow
f 117 140 141
g CanopyUnder_21
f 117 141 140
g CanopyInner_21
f 118 141 140
g CanopyTop_22
usemtl red
f 117 141 142
g CanopyUnder_22
f 117 142 141
g CanopyInner_22
f 118 142 141
g CanopyTop_23
usemtl yellow
f 117 142 119
g CanopyUnder_23
f 117 119 142
g CanopyInner_23
f 118 119 142
g CanopyRim_00
usemtl black
f 143 144 145 146
f 147 150 149 148
f 143 147 148 144
f 144 148 149 145
f 145 149 150 146
f 146 150 147 143
g CanopyRim_01
f 151 152 153 154
f 155 158 157 156
f 151 155 156 152
f 152 156 157 153
f 153 157 158 154
f 154 158 155 151
g CanopyRim_02
f 159 160 161 162
f 163 166 165 164
f 159 163 164 160
f 160 164 165 161
f 161 165 166 162
f 162 166 163 159
g CanopyRim_03
f 167 168 169 170
f 171 174 173 172
f 167 171 172 168
f 168 172 173 169
f 169 173 174 170
f 170 174 171 167
g CanopyRim_04
f 175 176 177 178
f 179 182 181 180
f 175 179 180 176
f 176 180 181 177
f 177 181 182 178
f 178 182 179 175
g CanopyRim_05
f 183 184 185 186
f 187 190 189 188
f 183 187 188 184
f 184 188 189 185
f 185 189 190 186
f 186 190 187 183
g CanopyRim_06
f 191 192 193 194
f 195 198 197 196
f 191 195 196 192
f 192 196 197 193
f 193 197 198 194
f 194 198 195 191
g CanopyRim_07
f 199 200 201 202
f 203 206 205 204
f 199 203 204 200
f 200 204 205 201
f 201 205 206 202
f 202 206 203 199
g CanopyRim_08
f 207 208 209 210
f 211 214 213 212
f 207 211 212 208
f 208 212 213 209
f 209 213 214 210
f 210 214 211 207
g CanopyRim_09
f 215 216 217 218
f 219 222 221 220
f 215 219 220 216
f 216 220 221 217
f 217 221 222 218
f 218 222 219 215
g CanopyRim_10
f 223 224 225 226
f 227 230 229 228
f 223 227 228 224
f 224 228 229 225
f 225 229 230 226
f 226 230 227 223
g CanopyRim_11
f 231 232 233 234
f 235 238 237 236
f 231 235 236 232
f 232 236 237 233
f 233 237 238 234
f 234 238 235 231
g CanopyRim_12
f 239 240 241 242
f 243 246 245 244
f 239 243 244 240
f 240 244 245 241
f 241 245 246 242
f 242 246 243 239
g CanopyRim_13
f 247 248 249 250
f 251 254 253 252
f 247 251 252 248
f 248 252 253 249
f 249 253 254 250
f 250 254 251 247
g CanopyRim_14
f 255 256 257 258
f 259 262 261 260
f 255 259 260 256
f 256 260 261 257
f 257 261 262 258
f 258 262 259 255
g CanopyRim_15
f 263 264 265 266
f 267 270 269 268
f 263 267 268 264
f 264 268 269 265
f 265 269 270 266
f 266 270 267 263
g CanopyRim_16
f 271 272 273 274
f 275 278 277 276
f 271 275 276 272
f 272 276 277 273
f 273 277 278 274
f 274 278 275 271
g CanopyRim_17
f 279 280 281 282
f 283 286 285 284
f 279 283 284 280
f 280 284 285 281
f 281 285 286 282
f 282 286 283 279
g CanopyRim_18
f 287 288 289 290
f 291 294 293 292
f 287 291 292 288
f 288 292 293 289
f 289 293 294 290
f 290 294 291 287
g CanopyRim_19
f 295 296 297 298
f 299 302 301 300
f 295 299 300 296
f 296 300 301 297
f 297 301 302 298
f 298 302 299 295
g CanopyRim_20
f 303 304 305 306
f 307 310 309 308
f 303 307 308 304
f 304 308 309 305
f 305 309 310 306
f 306 310 307 303
g CanopyRim_21
f 311 312 313 314
f 315 318 317 316
f 311 315 316 312
f 312 316 317 313
f 313 317 318 314
f 314 318 315 311
g CanopyRim_22
f 319 320 321 322
f 323 326 325 324
f 319 323 324 320
f 320 324 325 321
f 321 325 326 322
f 322 326 323 319
g CanopyRim_23
f 327 328 329 330
f 331 334 333 332
f 327 331 332 328
f 328 332 333 329
f 329 333 334 330
f 330 334 331 327
g Rib_00
usemtl metal
f 335 336 337 338
f 339 342 341 340
f 335 339 340 336
f 336 340 341 337
f 337 341 342 338
f 338 342 339 335
g Rib_03
f 343 344 345 346
f 347 350 349 348
f 343 347 348 344
f 344 348 349 345
f 345 349 350 346
f 346 350 347 343
g Rib_06
f 351 352 353 354
f 355 358 357 356
f 351 355 356 352
f 352 356 357 353
f 353 357 358 354
f 354 358 355 351
g Rib_09
f 359 360 361 362
f 363 366 365 364
f 359 363 364 360
f 360 364 365 361
f 361 365 366 362
f 362 366 363 359
g Rib_12
f 367 368 369 370
f 371 374 373 372
f 367 371 372 368
f 368 372 373 369
f 369 373 374 370
f 370 374 371 367
g Rib_15
f 375 376 377 378
f 379 382 381 380
f 375 379 380 376
f 376 380 381 377
f 377 381 382 378
f 378 382 379 375
g Rib_18
f 383 384 385 386
f 387 390 389 388
f 383 387 388 384
f 384 388 389 385
f 385 389 390 386
f 386 390 387 383
g Rib_21
f 391 392 393 394
f 395 398 397 396
f 391 395 396 392
f 392 396 397 393
f 393 397 398 394
f 394 398 395 391
g TopCap
f 433 431 429 427 425 423 421 419 417 415 413 411 409 407 405 403 401 399
f 400 402 404 406 408 410 412 414 416 418 420 422 424 426 428 430 432 434
f 399 401 402 400
f 401 403 404 402
f 403 405 406 404
f 405 407 408 406
f 407 409 410 408
f 409 411 412 410
f 411 413 414 412
f 413 415 416 414
f 415 417 418 416
f 417 419 420 418
f 419 421 422 420
f 421 423 424 422
f 423 425 426 424
f 425 427 428 426
f 427 429 430 428
f 429 431 432 430
f 431 433 434 432
f 433 399 400 434
